<svg width="428" height="93" viewBox="0 0 428 93" fill="none" xmlns="http://www.w3.org/2000/svg">
<path d="M85.6866 59.9701H95.0693V32.1651H85.6866V59.9701ZM75.7639 69.6301V22.5443H100.186V27.2176H105.019V64.9045H100.186V69.617H75.7639V69.6301Z" fill="#1A1A1A"/>
<path d="M33.8584 22.5443H23.3147V69.4342H33.8584V22.5443Z" fill="#1A1A1A"/>
<path d="M121.867 22.5443H111.323V69.4342H121.867V22.5443Z" fill="#1A1A1A"/>
<path d="M50.113 69.617H40.1768V22.5443H69.4184V69.617H59.4822V32.1651H50.0995V69.617H50.113Z" fill="#1A1A1A"/>
<path fill-rule="evenodd" clip-rule="evenodd" d="M128.185 69.617H138.108V50.8976H147.491V69.617H157.413V22.5443H128.172V69.617H128.185ZM147.504 40.7024V32.1651H138.121V40.7024H147.504Z" fill="#1A1A1A"/>
<path d="M186.209 69.617H176.26V22.5443H200.722V32.1651H186.209V41.2637H200.722V50.8845H186.209V69.6301V69.617Z" fill="#1A1A1A"/>
<path d="M205.933 22.5443V69.617H235.229V22.5443H205.933ZM225.279 59.9701H215.87V32.1651H225.279V59.9701Z" fill="#1A1A1A"/>
<path d="M270.843 32.1651V22.5443H246.394H241.547V27.2176V50.8715H260.907V59.9701H241.547V69.617H266.01H270.843V64.9045V41.2507H251.497V32.1651H270.843Z" fill="#1A1A1A"/>
<path d="M306.47 32.1651V22.5443H282.008H277.175V27.2176V50.8715H296.52V59.9701H277.175V69.617H301.637H306.47V64.9045V41.2507H287.124V32.1651H306.47Z" fill="#1A1A1A"/>
<path d="M404.455 32.152H395.045V59.957H404.455V32.152Z" fill="#1A1A1A"/>
<path d="M0 0V92.1612H427.595V0H0ZM319.66 82.3707H10.1252V9.79049H319.66V82.3707ZM363.792 32.5044V69.6039H332.85V59.6306H353.478V50.4406H338.223V40.4674H353.478V32.4914H332.85V22.5181H363.792V32.4914V32.5044ZM379.817 69.6039H369.098V59.6306H379.817V69.6039ZM414.418 64.9044V69.6169H385.109V22.5442H414.418V64.9175V64.9044Z" fill="#1A1A1A"/>
</svg>
