<?xml version="1.0" encoding="UTF-8" standalone="no"?>
<svg
   width="428"
   height="93"
   viewBox="0 0 428 93"
   fill="none"
   version="1.1"
   id="svg12197"
   sodipodi:docname="indiafoss-logo-indiafoss.svg"
   inkscape:export-filename="/home/shkumar/projects/fossunited/indiafoss-logo.png"
   inkscape:export-xdpi="300.38708"
   inkscape:export-ydpi="300.38708"
   inkscape:version="1.1.2 (0a00cf5339, 2022-02-04)"
   xmlns:inkscape="http://www.inkscape.org/namespaces/inkscape"
   xmlns:sodipodi="http://sodipodi.sourceforge.net/DTD/sodipodi-0.dtd"
   xmlns="http://www.w3.org/2000/svg"
   xmlns:svg="http://www.w3.org/2000/svg">
  <defs
     id="defs12201" />
  <sodipodi:namedview
     id="namedview12199"
     pagecolor="#ffffff"
     bordercolor="#666666"
     borderopacity="1.0"
     inkscape:pageshadow="2"
     inkscape:pageopacity="0.0"
     inkscape:pagecheckerboard="0"
     showgrid="false"
     inkscape:zoom="2.1843101"
     inkscape:cx="314.28688"
     inkscape:cy="46.009951"
     inkscape:window-width="1835"
     inkscape:window-height="1016"
     inkscape:window-x="0"
     inkscape:window-y="0"
     inkscape:window-maximized="1"
     inkscape:current-layer="layer3" />
  <g
     inkscape:groupmode="layer"
     id="layer3"
     inkscape:label="Text"
     style="display:inline">
    <path
       d="m 85.6866,59.9701 h 9.3827 v -27.805 h -9.3827 z m -9.9227,9.66 V 22.5443 h 24.4221 v 4.6733 h 4.833 v 37.6869 h -4.833 V 69.617 H 75.7639 Z"
       fill="#1a1a1a"
       id="path12175" />
    <path
       d="M 33.8584,22.5443 H 23.3147 v 46.8899 h 10.5437 z"
       fill="#1a1a1a"
       id="path12177" />
    <path
       d="m 121.867,22.5443 h -10.544 v 46.8899 h 10.544 z"
       fill="#1a1a1a"
       id="path12179" />
    <path
       d="M 50.113,69.617 H 40.1768 V 22.5443 H 69.4184 V 69.617 H 59.4822 V 32.1651 H 50.0995 V 69.617 Z"
       fill="#1a1a1a"
       id="path12181" />
    <path
       fill-rule="evenodd"
       clip-rule="evenodd"
       d="m 128.185,69.617 h 9.923 V 50.8976 h 9.383 V 69.617 h 9.922 V 22.5443 H 128.172 V 69.617 Z m 19.319,-28.9146 v -8.5373 h -9.383 v 8.5373 z"
       fill="#1a1a1a"
       id="path12183" />
    <path
       d="M 186.209,69.617 H 176.26 V 22.5443 h 24.462 v 9.6208 h -14.513 v 9.0986 h 14.513 v 9.6208 h -14.513 v 18.7456 z"
       fill="#1a1a1a"
       id="path12185" />
    <path
       d="M 205.933,22.5443 V 69.617 h 29.296 V 22.5443 Z m 19.346,37.4258 h -9.409 v -27.805 h 9.409 z"
       fill="#1a1a1a"
       id="path12187" />
    <path
       d="m 270.843,32.1651 v -9.6208 h -24.449 -4.847 v 4.6733 23.6539 h 19.36 v 9.0986 h -19.36 v 9.6469 h 24.463 4.833 V 64.9045 41.2507 h -19.346 v -9.0856 z"
       fill="#1a1a1a"
       id="path12189" />
    <path
       d="m 306.47,32.1651 v -9.6208 h -24.462 -4.833 v 4.6733 23.6539 h 19.345 v 9.0986 h -19.345 v 9.6469 h 24.462 4.833 V 64.9045 41.2507 h -19.346 v -9.0856 z"
       fill="#1a1a1a"
       id="path12191" />
  </g>
</svg>
